<?xml version="1.0" encoding="UTF-8"?> <svg xmlns="http://www.w3.org/2000/svg" width="468" height="327" viewBox="0 0 468 327" fill="none"><mask id="path-1-outside-1_1247_1203" maskUnits="userSpaceOnUse" x="-387.645" y="-71.4744" width="841.727" height="834.997" fill="black"><rect fill="white" x="-387.645" y="-71.4744" width="841.727" height="834.997"></rect><path d="M-101.369 699.483C-135.578 642.526 -120.324 597.551 -162.619 527.132L-222.95 426.681C-265.245 356.263 -312.841 347.388 -347.672 289.396C-374.417 244.867 -342.469 204.23 -275.429 165.722C-208.39 127.215 -156.538 119.716 -129.793 164.246C-94.9627 222.238 -111.264 267.815 -68.9691 338.234L-56.5295 358.945L-26.7425 288.908C-5.23776 202.735 -69.4308 168.573 -61.4448 113.843C-53.9168 67.7342 -25.0786 21.9198 45.1034 -18.393C120.523 -61.7143 173.259 -34.8996 150.575 35.2362C128.317 103.735 69.8875 177.689 41.4757 266.437C130.381 198.655 253.201 206.106 311.045 302.414C334.058 340.73 387.252 358.924 413.998 403.454C441.365 449.019 408.794 488.62 341.755 527.128C274.715 565.636 223.486 574.169 196.119 528.604C169.374 484.075 174.479 419.857 157.064 390.861C88.6464 276.948 -59.8359 351.095 -2.61395 446.367C35.9487 510.573 83.5449 519.447 116.51 574.332C143.877 619.897 111.307 659.498 44.2671 698.006C-22.7724 736.514 -74.0017 745.048 -101.369 699.483Z"></path></mask><path d="M-56.5295 358.945L-58.2638 359.941L-56.2123 363.357L-54.6676 359.725L-56.5295 358.945ZM-26.7425 288.908L-24.8806 289.687L-24.8206 289.546L-24.7834 289.397L-26.7425 288.908ZM-61.4448 113.843L-63.4363 113.511L-63.4389 113.527L-63.4413 113.544L-61.4448 113.843ZM150.575 35.2363L152.497 35.8559L152.498 35.8533L150.575 35.2363ZM41.4757 266.437L39.5513 265.825L37.6033 271.91L42.7212 268.008L41.4757 266.437ZM-99.6345 698.486C-116.541 670.338 -121.228 645.182 -126.987 617.969C-132.75 590.741 -139.564 561.633 -160.884 526.136L-164.353 528.128C-143.379 563.05 -136.672 591.639 -130.936 618.742C-125.196 645.861 -120.406 671.67 -103.103 700.479L-99.6345 698.486ZM-160.884 526.136L-221.216 425.685L-224.685 427.678L-164.353 528.128L-160.884 526.136ZM-221.216 425.685C-242.536 390.188 -265.214 370.192 -286.801 351.883C-308.372 333.586 -328.718 317.07 -345.938 288.4L-349.406 290.392C-331.795 319.715 -310.927 336.632 -289.419 354.875C-267.927 373.105 -245.659 392.756 -224.685 427.678L-221.216 425.685ZM-345.938 288.4C-352.458 277.543 -355.349 267.02 -355.078 256.772C-354.808 246.516 -351.368 236.396 -345.005 226.362C-332.241 206.232 -307.835 186.642 -274.4 167.437L-276.459 164.008C-310.063 183.31 -335.151 203.292 -348.434 224.241C-355.095 234.745 -358.818 245.54 -359.111 256.631C-359.404 267.729 -356.258 278.984 -349.406 290.392L-345.938 288.4ZM-274.4 167.437C-240.964 148.232 -211.582 136.925 -187.389 135.826C-175.329 135.278 -164.615 137.269 -155.324 142.032C-146.039 146.792 -138.048 154.385 -131.528 165.242L-128.059 163.25C-134.911 151.842 -143.431 143.674 -153.485 138.519C-163.534 133.368 -174.987 131.291 -187.613 131.864C-212.791 133.009 -242.855 144.705 -276.459 164.008L-274.4 167.437ZM-131.528 165.242C-114.315 193.901 -109.732 219.462 -104.158 246.95C-98.5803 274.456 -92.0291 303.723 -70.7033 339.23L-67.2348 337.238C-88.2035 302.326 -94.6491 273.595 -100.202 246.21C-105.759 218.807 -110.441 192.583 -128.059 163.25L-131.528 165.242ZM-70.7033 339.23L-58.2638 359.941L-54.7953 357.949L-67.2348 337.238L-70.7033 339.23ZM-54.6676 359.725L-24.8806 289.687L-28.6045 288.128L-58.3915 358.166L-54.6676 359.725ZM-24.7834 289.397C-13.8767 245.692 -24.7397 215.117 -37.1965 188.763C-43.447 175.539 -49.9536 163.644 -54.4743 151.502C-58.961 139.451 -61.3824 127.399 -59.4482 114.143L-63.4413 113.544C-65.5002 127.653 -62.8922 140.395 -58.2608 152.834C-53.6634 165.183 -46.9632 177.476 -40.8518 190.406C-28.5848 216.358 -18.1036 245.95 -28.7017 288.418L-24.7834 289.397ZM-59.4532 114.176C-52.0386 68.761 -23.645 23.4024 46.1331 -16.6785L44.0736 -20.1075C-26.5122 20.4373 -55.795 66.7073 -63.4363 113.511L-59.4532 114.176ZM46.1331 -16.6785C83.667 -38.2381 114.89 -41.9373 133.715 -32.3653C143.046 -27.6207 149.511 -19.5431 152.313 -8.36676C155.128 2.86693 154.252 17.3054 148.652 34.6192L152.498 35.8533C158.24 18.0992 159.278 2.88486 156.229 -9.28111C153.165 -21.5045 145.986 -30.5734 135.541 -35.8843C114.814 -46.4232 81.9592 -41.8692 44.0736 -20.1075L46.1331 -16.6785ZM148.653 34.6166C137.594 68.6499 117.535 104.075 96.5561 142.289C75.6174 180.429 53.8208 221.253 39.5513 265.825L43.4002 267.048C57.5424 222.874 79.1665 182.347 100.11 144.198C121.013 106.123 141.298 70.3212 152.497 35.8559L148.653 34.6166ZM42.7212 268.008C130.941 200.749 252.253 208.41 309.311 303.41L312.78 301.418C254.15 203.801 129.822 196.561 40.2303 264.866L42.7212 268.008ZM309.311 303.41C321.057 322.966 340.472 337.334 359.894 352.165C379.438 367.09 399.115 382.559 412.263 404.45L415.732 402.458C402.135 379.819 381.842 363.927 362.35 349.042C342.736 334.065 324.047 320.177 312.78 301.418L309.311 303.41ZM412.263 404.45C418.944 415.573 421.908 426.228 421.666 436.521C421.424 446.819 417.968 456.902 411.57 466.868C398.732 486.867 374.174 506.2 340.725 525.413L342.785 528.842C376.376 509.548 401.623 489.826 414.987 469.007C421.691 458.564 425.437 447.796 425.699 436.65C425.961 425.499 422.735 414.117 415.732 402.458L412.263 404.45ZM340.725 525.413C307.277 544.626 278.051 556.187 253.937 557.413C241.92 558.024 231.232 556.066 221.917 551.258C212.606 546.452 204.534 538.731 197.853 527.608L194.385 529.6C201.388 541.26 209.982 549.559 220.069 554.765C230.151 559.969 241.591 562.014 254.183 561.374C279.285 560.097 309.194 548.137 342.785 528.842L340.725 525.413ZM197.853 527.608C184.698 505.705 179.33 478.867 175.083 453.602C172.969 441.03 171.126 428.809 168.723 417.95C166.322 407.099 163.321 397.396 158.798 389.865L155.33 391.857C159.514 398.825 162.406 408.022 164.782 418.758C167.156 429.487 168.973 441.54 171.103 454.213C175.343 479.438 180.795 506.974 194.385 529.6L197.853 527.608ZM158.798 389.865C124.085 332.069 68.7816 321.735 29.3019 338.346C9.6081 346.631 -6.16333 361.641 -13.3199 380.783C-20.4935 399.97 -18.9279 423.089 -4.3482 447.363L-0.879678 445.371C-14.9109 422.009 -16.2433 400.133 -9.53208 382.182C-2.80382 364.186 12.0923 349.915 30.9186 341.994C68.4789 326.191 121.625 335.741 155.33 391.857L158.798 389.865ZM-4.3482 447.363C15.1192 479.776 36.8863 498.227 57.7631 515.362C78.6336 532.492 98.4982 548.227 114.775 575.328L118.244 573.336C101.556 545.552 81.1404 529.407 60.331 512.328C39.5278 495.253 18.2156 477.164 -0.879678 445.371L-4.3482 447.363ZM114.775 575.328C121.456 586.451 124.421 597.106 124.178 607.399C123.936 617.697 120.48 627.78 114.082 637.746C101.244 657.746 76.686 677.078 43.2374 696.292L45.2969 699.721C78.8878 680.426 104.135 660.704 117.499 639.885C124.203 629.442 127.949 618.675 128.211 607.529C128.474 596.378 125.247 584.996 118.244 573.336L114.775 575.328ZM43.2374 696.292C9.7887 715.505 -19.4372 727.065 -43.5512 728.291C-55.5676 728.902 -66.2559 726.944 -75.5709 722.136C-84.8817 717.33 -92.9538 709.609 -99.6345 698.486L-103.103 700.479C-96.1002 712.138 -87.506 720.437 -77.4193 725.644C-67.3369 730.847 -55.8966 732.892 -43.3048 732.252C-18.2025 730.975 11.706 719.015 45.2969 699.721L43.2374 696.292Z" fill="#131313" mask="url(#path-1-outside-1_1247_1203)"></path></svg> 