<?xml version="1.0" encoding="UTF-8"?> <svg xmlns="http://www.w3.org/2000/svg" width="1723" height="287" viewBox="0 0 1723 287" fill="none"><mask id="mask0_4676_3004" style="mask-type:alpha" maskUnits="userSpaceOnUse" x="0" y="0" width="1723" height="287"><rect width="1723" height="287" rx="36" fill="#142D2B"></rect></mask><g mask="url(#mask0_4676_3004)"><path d="M1305.56 164.66C1240.93 74.4875 1156.34 64.0777 1098.31 -5.98393C1052.16 -59.2588 1113.57 -104.893 1216.99 -138.868C1321.86 -173.315 1376.81 -165.903 1421.52 -112.156C1458.15 -68.4857 1450.82 -32.6571 1488.84 20.1042L1631.45 211.982C1705.62 306.978 1736.43 260.254 1743.37 203.864L1756.51 40.397C1768.54 -87.6923 1630.95 -114.112 1628.95 -202.577C1628.19 -248.482 1663.74 -285.621 1765.73 -319.125C1874.9 -354.987 1941.73 -330.789 1939.51 -260.034C1936.33 -187.37 1847.49 -99.3016 1840.87 -8.00548L1816.19 280.206C1803.62 421.203 1792.8 490.008 1703.74 519.264C1608.93 550.408 1563.69 509.569 1477.16 396.35L1305.56 164.66Z" fill="#FFBDF4"></path></g></svg> 