<?xml version="1.0" encoding="UTF-8"?> <svg xmlns="http://www.w3.org/2000/svg" width="1367" height="630" viewBox="0 0 1367 630" fill="none"><mask id="mask0_1200_342" style="mask-type:alpha" maskUnits="userSpaceOnUse" x="0" y="0" width="1367" height="630"><rect width="1367" height="630" rx="20" fill="#142D2B"></rect></mask><g mask="url(#mask0_1200_342)"><mask id="path-2-outside-1_1200_342" maskUnits="userSpaceOnUse" x="873.827" y="-365.356" width="971.808" height="869.056" fill="black"><rect fill="white" x="873.827" y="-365.356" width="971.808" height="869.056"></rect><path d="M1654.07 194.458C1707.89 146.541 1761.44 151.721 1808.86 116.076C1844.53 88.2442 1815.01 51.5473 1756.24 15.3602C1698.31 -20.3099 1664.01 -22.9018 1627.51 4.41323C1597.66 26.5623 1596.88 50.3977 1564.77 78.1014L1446.92 179.229C1387.16 229.276 1375.54 195.49 1380.52 159.189L1392.68 86.7811L1429.06 55.9133C1482.88 7.99646 1535.59 12.6597 1583.01 -22.9856C1619.51 -50.3006 1589.16 -87.5145 1531.22 -123.185C1472.45 -159.372 1438.15 -161.964 1401.65 -134.649C1372.64 -111.983 1371.86 -88.1471 1339.75 -60.4435L1221.91 40.6845C1161.3 90.2146 1149.68 56.4287 1155.51 20.6444L1172.78 -84.5122C1185.39 -167.062 1274.15 -164.522 1289.66 -219.811C1297.1 -248.813 1281.02 -277.238 1223.93 -312.391C1163.47 -349.612 1118.26 -343.874 1108.94 -298.66C1099.11 -252.606 1139.6 -184.836 1129.12 -126.445L1097.75 58.0313C1083.52 148.849 1079.11 193.612 1128.65 224.112C1182.39 257.198 1216.43 237.633 1286.79 177.9L1333.24 138.185L1322.77 196.576C1308.53 287.393 1304.13 332.157 1354.51 363.174C1407.4 395.743 1441.45 376.178 1512.65 316.961L1654.07 194.458Z"></path></mask><path d="M1654.07 194.458L1655.4 195.952L1655.39 195.961L1655.38 195.97L1654.07 194.458ZM1808.86 116.076L1810.09 117.653L1810.08 117.664L1810.06 117.675L1808.86 116.076ZM1627.51 4.41323L1628.7 6.01454L1628.7 6.01935L1627.51 4.41323ZM1564.77 78.1014L1566.07 79.6157L1566.07 79.6191L1564.77 78.1014ZM1446.92 179.229L1448.22 180.747L1448.21 180.755L1448.21 180.763L1446.92 179.229ZM1380.52 159.189L1378.54 158.917L1378.55 158.888L1378.55 158.858L1380.52 159.189ZM1392.68 86.7811L1390.71 86.4498L1390.83 85.729L1391.39 85.2562L1392.68 86.7811ZM1429.06 55.9133L1430.39 57.407L1430.37 57.4228L1430.35 57.4382L1429.06 55.9133ZM1583.01 -22.9856L1581.8 -24.5843L1581.81 -24.5869L1583.01 -22.9856ZM1401.65 -134.649L1400.42 -136.225L1400.43 -136.237L1400.45 -136.25L1401.65 -134.649ZM1339.75 -60.4435L1341.06 -58.9292L1341.05 -58.9257L1339.75 -60.4435ZM1221.91 40.6845L1223.21 42.2023L1223.19 42.218L1223.17 42.2331L1221.91 40.6845ZM1155.51 20.6444L1153.53 20.3232L1153.53 20.3202L1155.51 20.6444ZM1172.78 -84.5122L1174.75 -84.2101L1174.75 -84.1991L1174.75 -84.1881L1172.78 -84.5122ZM1289.66 -219.811L1291.6 -219.315L1291.59 -219.293L1291.59 -219.271L1289.66 -219.811ZM1108.94 -298.66L1110.9 -298.256L1110.9 -298.249L1110.9 -298.242L1108.94 -298.66ZM1129.12 -126.445L1127.15 -126.78L1127.15 -126.789L1127.15 -126.798L1129.12 -126.445ZM1097.75 58.0313L1095.77 57.7217L1095.78 57.7088L1095.78 57.696L1097.75 58.0313ZM1286.79 177.9L1288.09 179.42L1288.09 179.424L1286.79 177.9ZM1333.24 138.185L1331.94 136.665L1336.2 133.025L1335.21 138.538L1333.24 138.185ZM1322.77 196.576L1320.79 196.266L1320.79 196.245L1320.8 196.223L1322.77 196.576ZM1512.65 316.961L1513.96 318.473L1513.94 318.486L1513.93 318.499L1512.65 316.961ZM1652.74 192.964C1679.95 168.74 1707.09 157.952 1733.2 148.778C1759.36 139.588 1784.25 132.072 1807.66 114.478L1810.06 117.675C1786.05 135.726 1760.46 143.442 1734.53 152.552C1708.56 161.679 1682.02 172.259 1655.4 195.952L1652.74 192.964ZM1807.63 114.5C1816.27 107.754 1820.75 100.648 1821.98 93.3552C1823.21 86.0474 1821.22 78.203 1816.25 69.8774C1806.24 53.1409 1784.54 35.1299 1755.19 17.0633L1757.29 13.6571C1786.72 31.7776 1809.15 50.2086 1819.68 67.8253C1824.97 76.6763 1827.36 85.4864 1825.92 94.0178C1824.49 102.564 1819.28 110.482 1810.09 117.653L1807.63 114.5ZM1755.19 17.0633C1726.31 -0.71756 1703.58 -10.0863 1683.67 -11.7396C1663.88 -13.383 1646.65 -7.41771 1628.7 6.01453L1626.31 2.81193C1644.86 -11.0709 1663.03 -17.4671 1684 -15.7259C1704.85 -13.9944 1728.23 -4.23213 1757.29 13.6571L1755.19 17.0633ZM1628.7 6.01935C1614.08 16.8667 1606.58 28.1006 1598.66 40.2659C1590.72 52.4646 1582.36 65.5626 1566.07 79.6157L1563.46 76.5871C1579.28 62.9364 1587.37 50.2649 1595.31 38.0828C1603.27 25.8672 1611.08 14.1088 1626.31 2.80714L1628.7 6.01935ZM1566.07 79.6191L1448.22 180.747L1445.62 177.712L1563.46 76.5836L1566.07 79.6191ZM1448.21 180.763C1433.18 193.342 1421.04 200.786 1411.3 204.204C1401.53 207.629 1393.9 207.094 1388.31 203.236C1382.79 199.433 1379.79 192.745 1378.42 185.021C1377.05 177.256 1377.28 168.114 1378.54 158.917L1382.5 159.461C1381.28 168.415 1381.09 177.11 1382.36 184.325C1383.64 191.582 1386.34 197.019 1390.58 199.944C1394.74 202.814 1400.9 203.611 1409.97 200.429C1419.06 197.241 1430.78 190.141 1445.64 177.696L1448.21 180.763ZM1378.55 158.858L1390.71 86.4498L1394.66 87.1123L1382.49 159.52L1378.55 158.858ZM1391.39 85.2562L1427.76 54.3883L1430.35 57.4382L1393.98 88.306L1391.39 85.2562ZM1427.73 54.4195C1454.93 30.2013 1481.85 19.2839 1507.76 9.97979C1533.7 0.660712 1558.39 -6.98452 1581.8 -24.5843L1584.21 -21.3868C1560.2 -3.34129 1534.83 4.50447 1509.11 13.7443C1483.34 22.9991 1457.01 33.7085 1430.39 57.407L1427.73 54.4195ZM1581.81 -24.5869C1590.65 -31.2064 1595.22 -38.2469 1596.49 -45.4944C1597.77 -52.7602 1595.79 -60.598 1590.81 -68.9258C1580.81 -85.6635 1559.1 -103.675 1530.18 -121.482L1532.27 -124.888C1561.29 -107.024 1583.72 -88.5937 1594.25 -70.978C1599.53 -62.1293 1601.92 -53.3127 1600.43 -44.8038C1598.94 -36.2767 1593.61 -28.4223 1584.2 -21.3843L1581.81 -24.5869ZM1530.18 -121.482C1500.87 -139.523 1477.93 -149.021 1457.92 -150.737C1438.02 -152.443 1420.8 -146.479 1402.85 -133.047L1400.45 -136.25C1419.01 -150.133 1437.18 -156.53 1458.26 -154.723C1479.21 -152.925 1502.8 -143.034 1532.27 -124.888L1530.18 -121.482ZM1402.88 -133.073C1388.67 -121.968 1381.38 -110.603 1373.55 -98.3578C1365.7 -86.0816 1357.35 -72.9839 1341.06 -58.9292L1338.44 -61.9578C1354.26 -75.6067 1362.36 -88.2785 1370.18 -100.512C1378.02 -112.777 1385.62 -124.663 1400.42 -136.225L1402.88 -133.073ZM1341.05 -58.9257L1223.21 42.2023L1220.6 39.1668L1338.45 -61.9612L1341.05 -58.9257ZM1223.17 42.2331C1207.94 54.6826 1195.63 62.0253 1185.79 65.3744C1175.93 68.729 1168.25 68.1578 1162.66 64.3036C1157.14 60.4964 1154.19 53.8331 1152.93 46.1609C1151.67 38.4511 1152.06 29.3984 1153.53 20.3232L1157.48 20.9656C1156.05 29.7826 1155.71 38.3722 1156.88 45.5137C1158.05 52.693 1160.7 58.0901 1164.93 61.0112C1169.1 63.8852 1175.32 64.7101 1184.5 61.5875C1193.7 58.4593 1205.57 51.4515 1220.64 39.1359L1223.17 42.2331ZM1153.53 20.3202L1170.8 -84.8364L1174.75 -84.1881L1157.48 20.9686L1153.53 20.3202ZM1170.8 -84.8143C1177.24 -126.969 1203.22 -147.388 1229.05 -164.064C1242.02 -172.442 1254.77 -179.769 1265.35 -188.497C1275.87 -197.168 1284.01 -207.055 1287.74 -220.352L1291.59 -219.271C1287.56 -204.923 1278.79 -194.393 1267.9 -185.411C1257.08 -176.485 1243.95 -168.921 1231.22 -160.704C1205.64 -144.19 1180.93 -124.605 1174.75 -84.2101L1170.8 -84.8143ZM1287.72 -220.308C1291.29 -234.221 1289.26 -247.994 1279.34 -262.674C1269.34 -277.454 1251.33 -293.17 1222.88 -310.688L1224.97 -314.094C1253.62 -296.46 1272.19 -280.386 1282.65 -264.915C1293.18 -249.344 1295.47 -234.402 1291.6 -219.315L1287.72 -220.308ZM1222.88 -310.688C1192.81 -329.202 1166.87 -336.807 1147.5 -334.453C1137.86 -333.282 1129.87 -329.651 1123.73 -323.68C1117.58 -317.701 1113.17 -309.255 1110.9 -298.256L1106.99 -299.063C1109.38 -310.672 1114.11 -319.898 1120.94 -326.548C1127.79 -333.207 1136.63 -337.162 1147.02 -338.424C1167.7 -340.938 1194.59 -332.802 1224.97 -314.094L1222.88 -310.688ZM1110.9 -298.242C1108.52 -287.081 1109.16 -274.494 1111.4 -260.857C1113.63 -247.219 1117.41 -232.703 1121.22 -217.669C1128.78 -187.743 1136.42 -155.781 1131.09 -126.091L1127.15 -126.798C1132.3 -155.499 1124.94 -186.618 1117.34 -216.689C1113.55 -231.653 1109.72 -246.364 1107.45 -260.21C1105.18 -274.057 1104.46 -287.211 1106.99 -299.077L1110.9 -298.242ZM1131.09 -126.109L1099.72 58.3666L1095.78 57.696L1127.15 -126.78L1131.09 -126.109ZM1099.73 58.341C1092.6 103.831 1088 137.423 1091.27 163.441C1092.9 176.393 1096.47 187.387 1102.61 196.989C1108.75 206.591 1117.52 214.909 1129.7 222.409L1127.6 225.815C1115.02 218.066 1105.76 209.35 1099.24 199.143C1092.71 188.936 1088.99 177.344 1087.3 163.94C1083.95 137.247 1088.67 103.048 1095.77 57.7217L1099.73 58.341ZM1129.7 222.409C1156.18 238.714 1177.51 241.907 1200.84 233.921C1224.45 225.841 1250.27 206.282 1285.5 176.375L1288.09 179.424C1252.95 209.251 1226.57 229.341 1202.14 237.705C1177.42 246.163 1154.86 242.596 1127.6 225.815L1129.7 222.409ZM1285.49 176.379L1331.94 136.665L1334.54 139.705L1288.09 179.42L1285.49 176.379ZM1335.21 138.538L1324.73 196.929L1320.8 196.223L1331.28 137.831L1335.21 138.538ZM1324.74 196.886C1317.61 242.377 1313.02 275.965 1316.39 302.043C1318.07 315.024 1321.72 326.066 1327.97 335.743C1334.23 345.421 1343.16 353.839 1355.56 361.471L1353.46 364.877C1340.67 357.001 1331.26 348.191 1324.61 337.915C1317.97 327.636 1314.16 315.996 1312.42 302.557C1308.96 275.795 1313.69 241.592 1320.79 196.266L1324.74 196.886ZM1355.56 361.471C1368.63 369.519 1380.42 374.276 1391.83 376.044C1403.21 377.809 1414.32 376.614 1426.07 372.595C1449.68 364.512 1475.72 345.073 1511.37 315.424L1513.93 318.499C1478.38 348.067 1451.79 368.019 1427.36 376.38C1415.08 380.583 1403.31 381.873 1391.21 379.997C1379.13 378.124 1366.84 373.114 1353.46 364.877L1355.56 361.471ZM1511.34 315.45L1652.76 192.946L1655.38 195.97L1513.96 318.473L1511.34 315.45Z" fill="#FFBDF4" mask="url(#path-2-outside-1_1200_342)"></path><mask id="path-4-outside-2_1200_342" maskUnits="userSpaceOnUse" x="-289.933" y="234.876" width="729.112" height="736.968" fill="black"><rect fill="white" x="-289.933" y="234.876" width="729.112" height="736.968"></rect><path d="M-68.1982 723.715L-95.9101 721.934C-239.221 707.322 -244.414 508.711 -90.8413 386.394C-3.18329 317.566 21.6679 334.153 68.0072 305.242C143.971 257.192 219.296 389.14 166.566 430.274C106.36 479.011 10.3707 375.308 -72.5312 441.558C-87.0726 452.282 -88.5756 468.719 -74.4574 487.337C-21.5152 559.229 114.1 484.992 216.528 485.318C226.309 485.459 235.411 484.785 243.561 486.284C387.551 501.711 393.559 699.643 238.493 821.823C152.329 890.788 127.341 875.696 80.323 903.791C6.94184 948.31 -70.1508 819.214 -18.9145 777.944C42.786 729.343 137.959 833.725 220.861 767.475C234.724 755.936 236.906 740.314 223.603 721.017C169.845 649.804 34.3671 722.547 -68.1982 723.715Z"></path></mask><path d="M-68.1982 723.715L-68.3264 725.711L-68.251 725.715L-68.1754 725.715L-68.1982 723.715ZM-95.9101 721.934L-96.1129 723.924L-96.0757 723.927L-96.0383 723.93L-95.9101 721.934ZM-90.8413 386.394L-92.0764 384.821L-92.0873 384.83L-90.8413 386.394ZM68.0072 305.242L69.0659 306.939L69.0763 306.932L68.0072 305.242ZM166.566 430.274L165.336 428.697L165.321 428.708L165.307 428.719L166.566 430.274ZM-72.5312 441.558L-71.3441 443.167L-71.3129 443.144L-71.2826 443.12L-72.5312 441.558ZM-74.4574 487.337L-72.847 486.151L-72.8553 486.14L-72.8637 486.129L-74.4574 487.337ZM216.528 485.318L216.557 483.319L216.546 483.318L216.535 483.318L216.528 485.318ZM243.561 486.284L243.2 488.251L243.274 488.264L243.348 488.272L243.561 486.284ZM238.493 821.823L237.255 820.253L237.249 820.257L237.243 820.262L238.493 821.823ZM80.323 903.791L79.2971 902.074L79.2856 902.081L80.323 903.791ZM-18.9145 777.944L-20.152 776.373L-20.1606 776.38L-20.169 776.386L-18.9145 777.944ZM220.861 767.475L222.11 769.038L222.126 769.025L222.141 769.012L220.861 767.475ZM223.603 721.017L225.25 719.882L225.225 719.846L225.199 719.812L223.603 721.017ZM-68.0699 721.719L-95.7818 719.938L-96.0383 723.93L-68.3264 725.711L-68.0699 721.719ZM-95.7072 719.944C-131.051 716.341 -157.741 701.421 -175.618 679.286C-193.516 657.124 -202.699 627.576 -202.707 594.553C-202.722 528.488 -165.984 448.801 -89.5953 387.959L-92.0873 384.83C-169.27 446.304 -206.723 527.081 -206.707 594.554C-206.699 628.299 -197.312 658.789 -178.729 681.799C-160.125 704.835 -132.425 720.221 -96.1129 723.924L-95.7072 719.944ZM-89.6061 387.967C-45.9346 353.677 -17.9982 340.728 4.74066 332.736C27.4235 324.764 45.6465 321.55 69.0658 306.939L66.9485 303.545C44.0286 317.845 26.6564 320.793 3.41429 328.962C-19.7717 337.112 -48.09 350.284 -92.0764 384.821L-89.6061 387.967ZM69.0763 306.932C87.5243 295.263 105.822 294.552 122.176 300.599C138.609 306.674 153.192 319.624 163.891 335.435C174.587 351.243 181.283 369.743 182.096 386.723C182.909 403.689 177.859 418.928 165.336 428.697L167.796 431.851C181.638 421.053 186.946 404.373 186.092 386.532C185.238 368.704 178.242 349.508 167.203 333.193C156.166 316.881 140.971 303.283 123.563 296.847C106.077 290.382 86.4721 291.196 66.9381 303.552L69.0763 306.932ZM165.307 428.719C150.801 440.462 134.104 443.093 115.66 441.291C97.1204 439.479 77.1198 433.229 56.06 427.421C14.188 415.872 -31.4747 406.188 -73.7798 439.995L-71.2826 443.12C-30.6858 410.678 13.0969 419.721 54.9964 431.277C75.8223 437.021 96.289 443.417 115.271 445.272C134.349 447.136 152.228 444.454 167.824 431.828L165.307 428.719ZM-73.7183 439.948C-81.3788 445.598 -85.7714 452.901 -86.2386 461.377C-86.7021 469.786 -83.2836 479.008 -76.051 488.546L-72.8637 486.129C-79.7494 477.048 -82.6385 468.743 -82.2447 461.597C-81.8546 454.519 -78.225 448.242 -71.3441 443.167L-73.7183 439.948ZM-76.0678 488.523C-62.4428 507.025 -43.5017 516.072 -21.3469 519.284C0.739519 522.487 26.1136 519.909 52.83 515.134C79.5114 510.364 107.878 503.329 135.701 497.564C163.618 491.78 191.131 487.238 216.522 487.318L216.535 483.318C190.711 483.236 162.862 487.851 134.889 493.648C106.821 499.463 78.7698 506.433 52.1261 511.196C25.5175 515.952 0.659348 518.434 -20.7729 515.326C-42.1368 512.228 -60.0008 503.595 -72.847 486.151L-76.0678 488.523ZM216.499 487.318C226.539 487.463 235.269 486.792 243.2 488.251L243.923 484.317C235.554 482.778 226.08 483.456 216.557 483.319L216.499 487.318ZM243.348 488.272C278.868 492.078 305.742 507.11 323.769 529.3C341.816 551.513 351.115 581.049 351.173 614.025C351.289 679.995 314.39 759.476 237.255 820.253L239.73 823.394C317.662 761.991 355.292 681.415 355.173 614.018C355.114 580.31 345.605 549.833 326.874 526.777C308.123 503.697 280.25 488.203 243.774 484.295L243.348 488.272ZM237.243 820.262C194.312 854.624 166.712 867.977 144.042 876.255C121.45 884.504 103.021 887.898 79.2971 902.074L81.3489 905.508C104.643 891.588 122.217 888.482 145.414 880.012C168.534 871.57 196.51 857.988 239.742 823.385L237.243 820.262ZM79.2856 902.081C61.5111 912.865 43.5891 913.128 27.3768 906.848C11.0935 900.54 -3.52807 887.594 -14.3824 871.901C-25.2357 856.209 -32.2074 837.934 -33.3477 821.143C-34.4871 804.367 -29.8117 789.29 -17.6599 779.501L-20.169 776.386C-33.6354 787.233 -38.5369 803.769 -37.3385 821.414C-36.1411 839.045 -28.8601 858 -17.6722 874.176C-6.48524 890.351 8.72306 903.911 25.9319 910.577C43.2117 917.271 62.4443 916.977 81.3603 905.501L79.2856 902.081ZM-17.6769 779.515C-2.79298 767.791 14.1431 765.227 32.7205 767.111C51.3934 769.005 71.4333 775.352 92.4829 781.254C134.337 792.989 179.8 802.848 222.11 769.038L219.613 765.913C179.02 798.351 135.446 789.145 93.5628 777.402C72.7438 771.565 52.2401 765.07 33.1241 763.131C13.9125 761.183 -4.18573 763.796 -20.152 776.373L-17.6769 779.515ZM222.141 769.012C229.385 762.982 233.745 755.729 234.413 747.313C235.077 738.943 232.06 729.76 225.25 719.882L221.956 722.152C228.449 731.571 230.992 739.848 230.425 746.997C229.862 754.101 226.201 760.428 219.582 765.938L222.141 769.012ZM225.199 719.812C211.369 701.492 192.292 692.485 170.041 689.252C147.854 686.029 122.419 688.529 95.6575 693.254C68.9191 697.974 40.5542 704.98 12.6948 710.829C-15.2457 716.695 -42.7851 721.425 -68.2209 721.715L-68.1754 725.715C-42.3286 725.42 -14.4713 720.62 13.5167 714.743C41.586 708.85 69.6815 701.902 96.353 697.193C123.001 692.488 147.926 690.081 169.466 693.211C190.942 696.331 208.958 704.936 222.007 722.222L225.199 719.812Z" fill="#FFBDF4" mask="url(#path-4-outside-2_1200_342)"></path></g></svg> 