<?xml version="1.0" encoding="UTF-8"?> <svg xmlns="http://www.w3.org/2000/svg" width="1093" height="202" viewBox="0 0 1093 202" fill="none"><mask id="mask0_1247_663" style="mask-type:alpha" maskUnits="userSpaceOnUse" x="0" y="0" width="1093" height="202"><rect width="1093" height="202" fill="#6176C8"></rect></mask><g mask="url(#mask0_1247_663)"><path d="M688.689 214.407C651.071 134.539 588.236 114.638 551.93 51.675C525.119 3.16834 576.015 -24.0011 659.641 -36.5309C742.073 -48.8816 781.972 -35.3159 809.978 13.0117C832.968 52.319 822.391 79.555 845.26 126.209L929.454 296.817C972.745 381.942 1002.08 349.453 1013.91 306.149L1035.01 218.706L1008.86 166.436C971.241 86.5683 909.601 66.4882 873.295 3.52487C845.289 -44.8028 897.379 -72.1512 979.811 -84.502C1063.44 -97.0317 1103.34 -83.466 1131.34 -35.1384C1153.14 4.34793 1142.56 31.5839 1165.43 78.2382L1249.62 248.846C1294.11 333.792 1323.44 301.303 1334.08 258.178L1365.16 131.373C1390.63 32.2822 1289.39 -7.51603 1298.48 -77.2812C1304.04 -113.537 1335.82 -137.843 1417.06 -150.015C1503.07 -162.903 1551.27 -134.701 1540.03 -79.272C1528.97 -22.6481 1450.78 34.2633 1434.52 105.102L1381.2 328.072C1353.59 437.257 1337.03 489.819 1266.55 500.379C1190.09 511.835 1161.12 473.423 1110.55 372.289L1077.29 305.204L1061.03 376.043C1033.42 485.228 1016.86 537.79 945.181 548.529C869.917 559.806 840.954 521.394 789.183 420.439L688.689 214.407Z" fill="#58958C"></path></g></svg> 