<?xml version="1.0" encoding="UTF-8"?> <svg xmlns="http://www.w3.org/2000/svg" width="877" height="824" viewBox="0 0 877 824" fill="none"><mask id="mask0_910_361" style="mask-type:alpha" maskUnits="userSpaceOnUse" x="0" y="0" width="877" height="824"><path d="M0 20C0 8.95431 8.9543 0 20 0L857 0C868.046 0 877 8.9543 877 20V804C877 815.046 868.046 824 857 824H20C8.95432 824 0 815.046 0 804V20Z" fill="#FFF7F3"></path></mask><g mask="url(#mask0_910_361)"><rect width="877" height="824" rx="20" fill="#D4B5AA"></rect><path d="M829.629 583.791C810.728 483.724 786.815 382.672 730.165 302.718C701.751 262.606 666.446 227.271 624.546 203.477C604.414 192.048 582.495 183.632 559.517 179.134C536.539 174.636 513.006 175.361 489.154 179.446C419.036 191.451 357.872 241.215 299.4 286.1C275.835 304.19 251.431 324.295 224.762 335.883C203.98 344.908 181.819 346.371 167.775 328.26C159.596 317.711 155.686 303.646 153.102 289.971C148.138 263.64 147.596 235.768 146.877 208.502C146.064 178.072 145.328 147.697 143.112 117.505C140.739 85.266 137.108 53.2966 133.036 21.4629C131.084 6.1868 129.026 -9.06226 126.969 -24.3114C125.26 -36.9487 143.942 -41.7035 145.654 -29.0842C154.064 33.1506 162.208 95.574 164.384 159.229C165.42 189.522 165.401 220.015 167.628 250.112C169.089 269.78 170.679 288.693 177.439 304.799C177.985 306.093 178.561 307.368 179.177 308.61C179.471 309.205 179.78 309.792 180.094 310.371C178.879 308.072 179.883 310.018 180.169 310.455C181.578 312.595 183.031 314.604 184.671 316.541C185.025 316.956 185.427 317.312 185.79 317.712C183.911 315.595 184.999 317.008 185.556 317.434C186.227 317.95 186.861 318.522 187.546 319.018C188.35 319.598 189.209 320.084 190.04 320.623C190.713 321.059 192.197 321.357 189.586 320.424C190.189 320.637 190.76 320.95 191.364 321.174C192.265 321.517 193.181 321.811 194.114 322.054C194.575 322.177 195.083 322.231 195.531 322.386C197.21 322.955 193.285 322.271 195.11 322.321C197.328 322.386 199.476 322.594 201.721 322.514C202.252 322.493 202.782 322.42 203.317 322.381C200.518 322.609 202.455 322.504 203.078 322.385C204.185 322.171 205.297 322.001 206.411 321.751C208.952 321.188 211.475 320.429 213.973 319.55C214.579 319.338 215.179 319.11 215.784 318.887C217.93 318.115 213.756 319.743 215.899 318.846C217.154 318.319 218.407 317.781 219.652 317.216C222.276 316.019 224.871 314.719 227.436 313.347C233.343 310.187 239.108 306.65 244.777 302.943C258.165 294.191 268.179 286.592 281.473 276.459C341.201 230.915 403.168 178.783 474.26 162.252C497.021 156.954 520.225 154.468 542.744 156.296C567.397 158.302 591.207 164.715 613.322 174.646C657.823 194.627 695.541 227.127 727.045 265.108C757.945 302.354 781.963 345.975 799.949 392.718C818.126 439.964 830.437 490.175 840.819 540.782C843.424 553.494 845.904 566.25 848.322 579.033C850.671 591.473 831.972 596.174 829.636 583.806L829.629 583.791Z" fill="#D0EF76"></path></g></svg> 